<?xml version="1.0" encoding="UTF-8" standalone="no"?>
<!DOCTYPE svg PUBLIC "-//W3C//DTD SVG 1.1//EN" "http://www.w3.org/Graphics/SVG/1.1/DTD/svg11.dtd">
<svg version="1.1" xmlns="http://www.w3.org/2000/svg" xmlns:xlink="http://www.w3.org/1999/xlink" preserveAspectRatio="xMidYMid meet" viewBox="0 0 240 1178.2" width="240" height="1178.2"><defs><path d="" id="b8kKqTUNN"></path><path d="" id="dtBH4aXdF"></path><path d="" id="j103Xh7Crq"></path><path d="M0.12 89.96L0 1179.35L1370 1179.35L1368.66 128.62C1392.14 90.23 1392.14 71.04 1368.66 71.04C1333.45 71.04 1311.12 2.83 1264.17 2.57C1217.23 2.31 1200.79 70.41 1140.78 71.04C1080.76 71.67 1060.78 3 996.97 2.95C933.16 2.9 919.5 71.08 868.92 71.04C818.34 71.01 794.76 3.86 738.98 2.95C683.2 2.04 668.69 71.63 583.48 71.04C498.26 70.46 476.99 2.95 422.79 2.95C368.59 2.95 297.6 71.04 240 71.04C182.4 71.04 172.46 3.58 120 2.95C67.54 2.32 51.02 70.78 0 71.04C-34.01 71.22 -33.97 77.52 0.12 89.96Z" id="b48iWGL68U"></path><linearGradient id="gradienta5FQBz7b9V" gradientUnits="userSpaceOnUse" x1="680.4" y1="2.57" x2="680.4" y2="1179.35"><stop style="stop-color: #2c9193;stop-opacity: 1" offset="0%"></stop><stop style="stop-color: #010000;stop-opacity: 1" offset="100%"></stop></linearGradient></defs><g><g><g><g><use xlink:href="#b8kKqTUNN" opacity="1" fill-opacity="0" stroke="#000000" stroke-width="1" stroke-opacity="1"></use></g></g><g><g><use xlink:href="#dtBH4aXdF" opacity="1" fill-opacity="0" stroke="#000000" stroke-width="1" stroke-opacity="1"></use></g></g><g><g><use xlink:href="#j103Xh7Crq" opacity="1" fill-opacity="0" stroke="#000000" stroke-width="1" stroke-opacity="1"></use></g></g><g><use xlink:href="#b48iWGL68U" opacity="0.9" fill="url(#gradienta5FQBz7b9V)"></use><g><use xlink:href="#b48iWGL68U" opacity="0.9" fill-opacity="0" stroke="#000000" stroke-width="0" stroke-opacity="1"></use></g></g></g></g></svg>