<?xml version="1.0" encoding="UTF-8" standalone="no"?>
<!DOCTYPE svg PUBLIC "-//W3C//DTD SVG 1.1//EN" "http://www.w3.org/Graphics/SVG/1.1/DTD/svg11.dtd">
<svg version="1.1" xmlns="http://www.w3.org/2000/svg" xmlns:xlink="http://www.w3.org/1999/xlink" preserveAspectRatio="xMidYMid meet" viewBox="0 0 1370 860" width="1370" height="860"><defs><path d="" id="a1wbKT9q5S"></path><path d="" id="baWTx5jgu"></path><path d="" id="d1PiPJLGxT"></path><path d="M0.12 66.25L0 860L1370 860L1368.66 94.41C1392.14 66.44 1392.14 52.46 1368.66 52.46C1333.45 52.46 1311.12 2.76 1264.17 2.57C1217.23 2.38 1200.79 52 1140.78 52.46C1080.76 52.92 1060.78 2.88 996.97 2.85C933.16 2.81 919.5 52.49 868.92 52.46C818.34 52.43 794.76 3.51 738.98 2.85C683.2 2.19 668.69 52.89 583.48 52.46C498.26 52.03 476.99 2.85 422.79 2.85C368.59 2.85 323.96 52.46 260.02 52.46C196.07 52.46 168.67 3.31 116.22 2.85C63.76 2.39 51.14 52.27 0.12 52.46C-33.89 52.59 -33.89 57.18 0.12 66.25Z" id="b53g0P6Ypd"></path><linearGradient id="gradientavuEUex60" gradientUnits="userSpaceOnUse" x1="680.44" y1="2.57" x2="680.44" y2="860"><stop style="stop-color: #2c9193;stop-opacity: 1" offset="0%"></stop><stop style="stop-color: #010000;stop-opacity: 1" offset="100%"></stop></linearGradient></defs><g><g><g><g><use xlink:href="#a1wbKT9q5S" opacity="1" fill-opacity="0" stroke="#000000" stroke-width="1" stroke-opacity="1"></use></g></g><g><g><use xlink:href="#baWTx5jgu" opacity="1" fill-opacity="0" stroke="#000000" stroke-width="1" stroke-opacity="1"></use></g></g><g><g><use xlink:href="#d1PiPJLGxT" opacity="1" fill-opacity="0" stroke="#000000" stroke-width="1" stroke-opacity="1"></use></g></g><g><use xlink:href="#b53g0P6Ypd" opacity="0.9" fill="url(#gradientavuEUex60)"></use><g><use xlink:href="#b53g0P6Ypd" opacity="0.9" fill-opacity="0" stroke="#000000" stroke-width="0" stroke-opacity="1"></use></g></g></g></g></svg>